<svg width="39" height="23" viewBox="0 0 39 23" fill="none" xmlns="http://www.w3.org/2000/svg">
<path d="M28.3494 21.75C32.4494 21.75 33.4744 19.4438 33.4744 16.625V6.375C33.4744 3.55625 32.4494 1.25 28.3494 1.25C24.2494 1.25 23.2244 3.55625 23.2244 6.375V16.625C23.2244 19.4438 24.2494 21.75 28.3494 21.75Z" stroke="#212326" stroke-width="2" stroke-linecap="round" stroke-linejoin="round"/>
<path d="M10.6508 21.75C6.55076 21.75 5.52576 19.4438 5.52576 16.625V6.375C5.52576 3.55625 6.55076 1.25 10.6508 1.25C14.7508 1.25 15.7758 3.55625 15.7758 6.375V16.625C15.7758 19.4438 14.7508 21.75 10.6508 21.75Z" stroke="#212326" stroke-width="2" stroke-linecap="round" stroke-linejoin="round"/>
<path d="M15.7758 11.5H23.224" stroke="#212326" stroke-width="2" stroke-linecap="round" stroke-linejoin="round"/>
<path d="M37.4375 15.7709V7.22919" stroke="#212326" stroke-width="2" stroke-linecap="round" stroke-linejoin="round"/>
<path d="M1.5625 15.7709V7.22919" stroke="#212326" stroke-width="2" stroke-linecap="round" stroke-linejoin="round"/>
</svg>
