<svg width="17" height="17" viewBox="0 0 17 17" fill="none" xmlns="http://www.w3.org/2000/svg">
<path fill-rule="evenodd" clip-rule="evenodd" d="M16.3467 8.68183C16.3467 8.11456 16.2958 7.56911 16.2012 7.04547H8.66667V10.14H12.9721C12.7867 11.14 12.223 11.9873 11.3758 12.5546V14.5618H13.9612C15.4739 13.1691 16.3467 11.1182 16.3467 8.68183Z" fill="#212326"/>
<path fill-rule="evenodd" clip-rule="evenodd" d="M8.66664 16.4999C10.8266 16.4999 12.6376 15.7835 13.9612 14.5617L11.3757 12.5544C10.6594 13.0344 9.74301 13.318 8.66664 13.318C6.58301 13.318 4.81937 11.9108 4.19028 10.0199H1.51755V12.0926C2.83392 14.7071 5.53937 16.4999 8.66664 16.4999Z" fill="#212326"/>
<path fill-rule="evenodd" clip-rule="evenodd" d="M4.1903 10.02C4.0303 9.54005 3.9394 9.02732 3.9394 8.50005C3.9394 7.97277 4.0303 7.46005 4.1903 6.98005V4.90732H1.51758C0.975759 5.98732 0.666668 7.20914 0.666668 8.50005C0.666668 9.79095 0.975759 11.0128 1.51758 12.0928L4.1903 10.02Z" fill="#212326"/>
<path fill-rule="evenodd" clip-rule="evenodd" d="M8.66664 3.68182C9.84119 3.68182 10.8957 4.08545 11.7248 4.87818L14.0194 2.58364C12.6339 1.29273 10.823 0.5 8.66664 0.5C5.53937 0.5 2.83392 2.29273 1.51755 4.90727L4.19028 6.98C4.81937 5.08909 6.58301 3.68182 8.66664 3.68182Z" fill="#212326"/>
</svg>
