<svg width="35" height="34" viewBox="0 0 35 34" fill="none" xmlns="http://www.w3.org/2000/svg">
<path d="M19.1375 18.45H18.8875V18.7V22.1C18.8875 22.9003 18.2378 23.55 17.4375 23.55C16.6372 23.55 15.9875 22.9003 15.9875 22.1V18.7V18.45H15.7375H12.3375C11.5372 18.45 10.8875 17.8003 10.8875 17C10.8875 16.1997 11.5372 15.55 12.3375 15.55H15.7375H15.9875V15.3V11.9C15.9875 11.0997 16.6372 10.45 17.4375 10.45C18.2378 10.45 18.8875 11.0997 18.8875 11.9V15.3V15.55H19.1375H22.5375C23.3378 15.55 23.9875 16.1997 23.9875 17C23.9875 17.8003 23.3378 18.45 22.5375 18.45H19.1375ZM3.5875 17C3.5875 24.6368 9.80073 30.85 17.4375 30.85C25.0743 30.85 31.2875 24.6368 31.2875 17C31.2875 9.36323 25.0743 3.15 17.4375 3.15C9.80073 3.15 3.5875 9.36323 3.5875 17ZM0.6875 17C0.6875 7.74897 8.18647 0.25 17.4375 0.25C26.6885 0.25 34.1875 7.74897 34.1875 17C34.1875 26.251 26.6885 33.75 17.4375 33.75C8.18647 33.75 0.6875 26.251 0.6875 17Z" fill="#212326" stroke="#FAFAFA" stroke-width="0.5"/>
</svg>
